<svg width="92" height="89" viewBox="0 0 92 89" fill="none" xmlns="http://www.w3.org/2000/svg">
<mask id="path-1-outside-1_41_2" maskUnits="userSpaceOnUse" x="31" y="14" width="61" height="61" fill="black">
<rect fill="white" x="31" y="14" width="61" height="61"/>
<path d="M61.5 15C77.7924 15 91 28.2076 91 44.5C91 60.7924 77.7924 74 61.5 74C45.2076 74 32 60.7924 32 44.5C32 28.2076 45.2076 15 61.5 15ZM63 29C54.1634 29 47 36.1634 47 45C47 53.8366 54.1634 61 63 61C71.1679 61 77.9049 54.8794 78.8779 46.9746C77.6787 47.6261 76.3297 48.0487 74.8828 48.1719C69.2751 48.6493 64.3418 44.4905 63.8643 38.8828C63.5516 35.2109 65.2269 31.8278 67.9951 29.7959C66.4234 29.2798 64.7444 29 63 29Z"/>
</mask>
<path d="M61.5 15C77.7924 15 91 28.2076 91 44.5C91 60.7924 77.7924 74 61.5 74C45.2076 74 32 60.7924 32 44.5C32 28.2076 45.2076 15 61.5 15ZM63 29C54.1634 29 47 36.1634 47 45C47 53.8366 54.1634 61 63 61C71.1679 61 77.9049 54.8794 78.8779 46.9746C77.6787 47.6261 76.3297 48.0487 74.8828 48.1719C69.2751 48.6493 64.3418 44.4905 63.8643 38.8828C63.5516 35.2109 65.2269 31.8278 67.9951 29.7959C66.4234 29.2798 64.7444 29 63 29Z" fill="white"/>
<path d="M78.8779 46.9746L79.8704 47.0968L80.1078 45.1684L78.4006 46.0959L78.8779 46.9746ZM74.8828 48.1719L74.9676 49.1683H74.9677L74.8828 48.1719ZM63.8643 38.8828L62.8679 38.9676L62.8679 38.9677L63.8643 38.8828ZM67.9951 29.7959L68.5868 30.6021L70.1536 29.4521L68.3071 28.8458L67.9951 29.7959ZM61.5 15V16C77.2401 16 90 28.7599 90 44.5H91H92C92 27.6553 78.3447 14 61.5 14V15ZM91 44.5H90C90 60.2401 77.2401 73 61.5 73V74V75C78.3447 75 92 61.3447 92 44.5H91ZM61.5 74V73C45.7599 73 33 60.2401 33 44.5H32H31C31 61.3447 44.6553 75 61.5 75V74ZM32 44.5H33C33 28.7599 45.7599 16 61.5 16V15V14C44.6553 14 31 27.6553 31 44.5H32ZM63 29V28C53.6112 28 46 35.6112 46 45H47H48C48 36.7157 54.7157 30 63 30V29ZM47 45H46C46 54.3888 53.6112 62 63 62V61V60C54.7157 60 48 53.2843 48 45H47ZM63 61V62C71.6793 62 78.8365 55.4966 79.8704 47.0968L78.8779 46.9746L77.8854 46.8524C76.9734 54.2623 70.6566 60 63 60V61ZM78.8779 46.9746L78.4006 46.0959C77.319 46.6835 76.1033 47.0643 74.798 47.1755L74.8828 48.1719L74.9677 49.1683C76.5562 49.033 78.0384 48.5688 79.3553 47.8533L78.8779 46.9746ZM74.8828 48.1719L74.798 47.1755C69.7406 47.6061 65.2913 43.8553 64.8607 38.798L63.8643 38.8828L62.8679 38.9677C63.3922 45.1256 68.8097 49.6926 74.9676 49.1683L74.8828 48.1719ZM63.8643 38.8828L64.8607 38.798C64.5788 35.4875 66.0878 32.4363 68.5868 30.6021L67.9951 29.7959L67.4034 28.9897C64.3659 31.2192 62.5245 34.9343 62.8679 38.9676L63.8643 38.8828ZM67.9951 29.7959L68.3071 28.8458C66.6362 28.2972 64.852 28 63 28V29V30C64.6368 30 66.2106 30.2625 67.6832 30.746L67.9951 29.7959Z" fill="white" mask="url(#path-1-outside-1_41_2)"/>
<path d="M0.5 46.5703C0.613413 46.7561 0.735932 46.9537 0.868164 47.1621C1.72139 48.5067 2.97368 50.3281 4.57812 52.4619C7.78712 56.7297 12.4148 62.2603 18.0938 67.7393C27.3814 76.6997 39.5444 85.5807 52.9551 88.5H0.5V46.5703ZM52.7617 0.5C39.1233 3.41966 26.9772 12.2992 17.7744 21.2617C12.1477 26.7416 7.59907 32.2735 4.45605 36.542C2.88455 38.6762 1.66174 40.4979 0.830078 41.8428C0.712061 42.0336 0.602581 42.2158 0.5 42.3877V0.5H52.7617Z" fill="white" stroke="white"/>
</svg>
