<svg width="317" height="150" viewBox="0 0 317 150" fill="none" xmlns="http://www.w3.org/2000/svg">
<path d="M142.416 63.04C136.784 63.1253 131.792 64.576 127.44 67.392C123.173 70.1227 120.144 73.92 118.352 78.784V120H107.088V53.184H117.584V68.672C119.888 64.064 122.917 60.352 126.672 57.536C130.512 54.6347 134.523 53.0133 138.704 52.672C139.557 52.672 140.283 52.672 140.88 52.672C141.477 52.672 141.989 52.7147 142.416 52.8V63.04ZM187.892 121.28C182.687 121.28 177.951 120 173.684 117.44C169.417 114.88 166.047 111.552 163.572 107.456V120H153.588V26.56H164.852V66.496C167.668 62.144 171.124 58.6453 175.22 56C179.316 53.3547 184.095 52.032 189.556 52.032C194.164 52.032 198.303 53.0133 201.972 54.976C205.641 56.8533 208.756 59.456 211.316 62.784C213.961 66.0267 215.967 69.7387 217.332 73.92C218.783 78.016 219.508 82.3253 219.508 86.848C219.508 91.5413 218.697 95.9787 217.076 100.16C215.54 104.256 213.321 107.925 210.42 111.168C207.519 114.325 204.148 116.8 200.308 118.592C196.553 120.384 192.415 121.28 187.892 121.28ZM185.076 111.552C188.404 111.552 191.476 110.869 194.292 109.504C197.108 108.139 199.54 106.304 201.588 104C203.636 101.696 205.215 99.0507 206.324 96.064C207.433 93.0773 207.988 90.0053 207.988 86.848C207.988 82.496 207.049 78.4 205.172 74.56C203.38 70.72 200.82 67.648 197.492 65.344C194.249 62.9547 190.452 61.76 186.1 61.76C182.943 61.76 179.999 62.4853 177.268 63.936C174.537 65.3867 172.105 67.3067 169.972 69.696C167.924 72 166.217 74.56 164.852 77.376V96.704C165.279 98.8373 166.175 100.8 167.54 102.592C168.905 104.384 170.569 105.963 172.532 107.328C174.495 108.608 176.543 109.632 178.676 110.4C180.895 111.168 183.028 111.552 185.076 111.552ZM233.338 120V53.184H244.602V120H233.338ZM233.338 40.64V26.56H244.602V40.64H233.338ZM285.75 121.28C280.203 121.28 274.998 120.384 270.134 118.592C265.27 116.715 261.089 113.941 257.59 110.272L261.942 102.336C265.782 105.92 269.622 108.48 273.462 110.016C277.302 111.552 281.227 112.32 285.238 112.32C289.846 112.32 293.601 111.467 296.502 109.76C299.403 107.968 300.854 105.365 300.854 101.952C300.854 99.4773 300.086 97.6427 298.55 96.448C297.099 95.2533 295.009 94.272 292.278 93.504C289.547 92.6507 286.305 91.712 282.55 90.688C277.942 89.3227 274.059 87.872 270.902 86.336C267.745 84.8 265.355 82.88 263.734 80.576C262.113 78.272 261.302 75.3707 261.302 71.872C261.302 67.6053 262.411 64.0213 264.63 61.12C266.849 58.1333 269.878 55.872 273.718 54.336C277.643 52.8 282.081 52.032 287.03 52.032C291.979 52.032 296.459 52.8 300.47 54.336C304.481 55.872 307.937 58.1333 310.838 61.12L305.718 68.928C303.073 66.1973 300.171 64.192 297.014 62.912C293.857 61.5467 290.315 60.864 286.39 60.864C284.086 60.864 281.825 61.1627 279.606 61.76C277.387 62.272 275.553 63.2533 274.102 64.704C272.651 66.0693 271.926 68.032 271.926 70.592C271.926 72.7253 272.481 74.432 273.59 75.712C274.785 76.9067 276.491 77.9307 278.71 78.784C281.014 79.6373 283.787 80.576 287.03 81.6C292.065 83.0507 296.417 84.5013 300.086 85.952C303.841 87.4027 306.742 89.28 308.79 91.584C310.838 93.888 311.862 97.088 311.862 101.184C311.862 107.499 309.473 112.448 304.694 116.032C299.915 119.531 293.601 121.28 285.75 121.28Z" fill="white"/>
<path d="M0 85V44H63C28.1077 44 0 83.4528 0 85C0 86.5472 28.9692 126 63 126H0V85Z" fill="white"/>
<path d="M62.2842 126.746L63.3535 126.76C63.8667 126.76 64.378 126.747 64.8867 126.729C64.3779 126.747 63.8669 126.761 63.3535 126.761L62.2852 126.747L62.2842 126.746ZM61.2266 126.706C61.1842 126.704 61.1419 126.701 61.0996 126.698C61.1419 126.701 61.1842 126.704 61.2266 126.706ZM65.5381 126.702C65.5192 126.703 65.5003 126.705 65.4814 126.706C65.5003 126.705 65.5192 126.703 65.5381 126.702ZM60.2021 126.642C59.9191 126.62 59.6369 126.594 59.3555 126.567C59.6369 126.594 59.9191 126.62 60.2021 126.642ZM67.2451 126.576C67.005 126.599 66.7647 126.622 66.5234 126.641C66.7647 126.622 67.005 126.599 67.2451 126.576ZM59.2109 126.555C58.9648 126.53 58.7195 126.501 58.4746 126.473C58.7195 126.501 58.9648 126.53 59.2109 126.555ZM68.2598 126.47C68.0165 126.498 67.7729 126.527 67.5283 126.552C67.7729 126.527 68.0165 126.498 68.2598 126.47ZM58.168 126.438C57.9976 126.416 57.8279 126.392 57.6582 126.368C57.8279 126.392 57.9976 126.416 58.168 126.438ZM69.0918 126.362C68.9188 126.386 68.7459 126.412 68.5723 126.434C68.7459 126.412 68.9188 126.386 69.0918 126.362ZM57.1143 126.292C56.9896 126.273 56.8655 126.251 56.7412 126.231C56.8655 126.251 56.9896 126.273 57.1143 126.292ZM70.1025 126.209C69.9406 126.236 69.7788 126.264 69.6162 126.289C69.7788 126.264 69.9406 126.236 70.1025 126.209ZM56.0957 126.125C55.9763 126.104 55.8573 126.081 55.7383 126.059C55.8573 126.081 55.9763 126.104 56.0957 126.125ZM71.1582 126.021C70.9788 126.056 70.7994 126.091 70.6191 126.123C70.7994 126.091 70.9788 126.056 71.1582 126.021ZM55.0996 125.936C54.9505 125.905 54.8019 125.874 54.6533 125.842C54.8019 125.874 54.9505 125.905 55.0996 125.936ZM72.1094 125.829C71.9494 125.864 71.7896 125.899 71.6289 125.932C71.7896 125.899 71.9494 125.864 72.1094 125.829ZM54.1465 125.731C53.9554 125.688 53.7653 125.642 53.5752 125.596C53.7653 125.642 53.9554 125.688 54.1465 125.731ZM73.1865 125.582C73.0032 125.627 72.82 125.673 72.6357 125.715C72.82 125.673 73.0032 125.627 73.1865 125.582ZM53.1797 125.499C52.9942 125.452 52.8095 125.403 52.625 125.354C52.8095 125.403 52.9942 125.452 53.1797 125.499ZM74.125 125.342C73.9504 125.389 73.7761 125.437 73.6006 125.481C73.7761 125.437 73.9504 125.389 74.125 125.342ZM52.1807 125.233C52.017 125.188 51.8542 125.14 51.6914 125.092C51.8542 125.14 52.017 125.188 52.1807 125.233ZM75.0195 125.091C74.8849 125.13 74.7505 125.171 74.6152 125.209C74.7505 125.171 74.8849 125.13 75.0195 125.091ZM51.208 124.948C51.0523 124.901 50.8971 124.851 50.7422 124.802C50.8971 124.851 51.0523 124.901 51.208 124.948ZM76.0088 124.787C75.869 124.832 75.7293 124.878 75.5889 124.921C75.7293 124.878 75.869 124.832 76.0088 124.787ZM50.2686 124.647C50.086 124.587 49.9041 124.524 49.7227 124.461C49.9041 124.524 50.086 124.587 50.2686 124.647ZM77.0312 124.444C76.8652 124.502 76.6992 124.561 76.5322 124.617C76.6992 124.561 76.8652 124.502 77.0312 124.444ZM49.3662 124.336C49.1816 124.27 48.9978 124.202 48.8145 124.133C48.9978 124.202 49.1816 124.27 49.3662 124.336ZM77.9102 124.126C77.7652 124.18 77.6203 124.235 77.4746 124.288C77.6203 124.235 77.7652 124.18 77.9102 124.126ZM48.375 123.965C48.2271 123.907 48.0797 123.849 47.9326 123.79C48.0797 123.849 48.2271 123.907 48.375 123.965ZM78.79 123.783C78.6813 123.827 78.5731 123.872 78.4639 123.915C78.5731 123.872 78.6813 123.827 78.79 123.783ZM47.4512 123.594C47.3003 123.531 47.15 123.467 47 123.402C47.15 123.467 47.3003 123.531 47.4512 123.594ZM79.7471 123.385C79.6207 123.439 79.4942 123.494 79.3672 123.547C79.4942 123.494 79.6207 123.439 79.7471 123.385ZM46.5625 123.211C46.4014 123.139 46.241 123.067 46.0811 122.993C46.241 123.067 46.4014 123.139 46.5625 123.211ZM80.6807 122.968C80.5503 123.028 80.4202 123.089 80.2891 123.147C80.4202 123.089 80.5503 123.028 80.6807 122.968ZM45.6309 122.783C45.4994 122.721 45.368 122.658 45.2373 122.595C45.368 122.658 45.4994 122.721 45.6309 122.783ZM81.5801 122.539C81.4513 122.602 81.3229 122.667 81.1934 122.729C81.3229 122.667 81.4513 122.602 81.5801 122.539ZM44.7295 122.343C44.5927 122.274 44.4562 122.204 44.3203 122.134C44.4562 122.204 44.5927 122.274 44.7295 122.343ZM82.4893 122.079C82.3515 122.151 82.2139 122.224 82.0752 122.294C82.2139 122.224 82.3515 122.151 82.4893 122.079ZM43.8799 121.901C43.7389 121.826 43.598 121.751 43.458 121.674C43.598 121.751 43.7389 121.826 43.8799 121.901ZM83.4141 121.582C83.2621 121.666 83.1101 121.751 82.957 121.833C83.1101 121.751 83.2621 121.666 83.4141 121.582ZM42.9912 121.413C42.862 121.34 42.7328 121.267 42.6045 121.192C42.7328 121.267 42.862 121.34 42.9912 121.413ZM84.2656 121.095C84.112 121.185 83.9586 121.275 83.8037 121.363C83.9586 121.275 84.112 121.185 84.2656 121.095ZM42.1318 120.913C42.0089 120.84 41.8858 120.766 41.7637 120.691C41.8858 120.766 42.0089 120.84 42.1318 120.913ZM85.1016 120.592C84.9578 120.681 84.8139 120.769 84.6689 120.856C84.8139 120.769 84.9578 120.681 85.1016 120.592ZM41.2881 120.395C41.169 120.319 41.0499 120.244 40.9316 120.168C41.0499 120.244 41.169 120.319 41.2881 120.395ZM85.9502 120.053C85.8045 120.148 85.6587 120.243 85.5117 120.336C85.6587 120.243 85.8045 120.148 85.9502 120.053ZM40.4453 119.849C40.3361 119.776 40.2267 119.704 40.1182 119.63C40.2267 119.704 40.3361 119.776 40.4453 119.849ZM86.7871 119.491C86.6352 119.596 86.4834 119.7 86.3301 119.803C86.4834 119.7 86.6352 119.596 86.7871 119.491ZM39.6299 119.292C39.521 119.216 39.4119 119.14 39.3037 119.062C39.4119 119.14 39.521 119.216 39.6299 119.292ZM87.5928 118.924C87.4425 119.033 87.2915 119.14 87.1396 119.247C87.2915 119.14 87.4425 119.033 87.5928 118.924ZM63.3535 51.9463C81.8032 51.9465 96.7595 66.9038 96.7598 85.3535C96.7595 103.803 81.8032 118.76 63.3535 118.76C44.9038 118.76 29.9465 103.803 29.9463 85.3535C29.9465 66.9038 44.9038 51.9465 63.3535 51.9463ZM38.8594 118.738C38.741 118.651 38.6223 118.565 38.5049 118.477C38.6223 118.565 38.741 118.651 38.8594 118.738ZM88.373 118.346C88.2329 118.452 88.0927 118.558 87.9512 118.663C88.0927 118.558 88.2329 118.452 88.373 118.346ZM38.1533 118.208C38.0004 118.091 37.8475 117.973 37.6963 117.854C37.8475 117.973 38.0004 118.091 38.1533 118.208ZM89.1348 117.753C89.0037 117.857 88.8726 117.962 88.7402 118.064C88.8726 117.962 89.0037 117.857 89.1348 117.753ZM37.249 117.493C37.1524 117.415 37.0549 117.337 36.959 117.258C37.0549 117.337 37.1524 117.415 37.249 117.493ZM89.8867 117.14C89.7693 117.238 89.6517 117.336 89.5332 117.433C89.6517 117.336 89.7693 117.238 89.8867 117.14ZM36.5752 116.933C36.4528 116.829 36.3292 116.726 36.208 116.621C36.3292 116.726 36.4528 116.829 36.5752 116.933ZM90.6992 116.443C90.5594 116.566 90.4188 116.688 90.2773 116.81C90.4188 116.688 90.5594 116.566 90.6992 116.443ZM35.8633 116.314C35.7369 116.202 35.6093 116.091 35.4844 115.978C35.6093 116.091 35.7369 116.202 35.8633 116.314ZM91.4121 115.801C91.2698 115.932 91.1266 116.062 90.9824 116.191C91.1266 116.062 91.2698 115.932 91.4121 115.801ZM92.1045 115.146C91.9938 115.253 91.8833 115.36 91.7715 115.466C91.8833 115.36 91.9938 115.253 92.1045 115.146ZM92.8252 114.435C92.6958 114.566 92.5657 114.696 92.4346 114.825C92.5657 114.696 92.6958 114.566 92.8252 114.435ZM93.4629 113.773C93.3579 113.885 93.2527 113.995 93.1465 114.105C93.2527 113.995 93.3579 113.885 93.4629 113.773ZM94.1562 113.021C94.0509 113.139 93.9446 113.255 93.8379 113.371C93.9446 113.255 94.0509 113.139 94.1562 113.021ZM32.7285 113.222C32.5408 113.016 32.3564 112.807 32.1729 112.597C32.3564 112.807 32.5408 113.016 32.7285 113.222ZM94.7939 112.295C94.6907 112.415 94.587 112.535 94.4824 112.654C94.587 112.535 94.6907 112.415 94.7939 112.295ZM32.085 112.498C31.9768 112.374 31.8713 112.247 31.7646 112.121C31.8713 112.247 31.9768 112.374 32.085 112.498ZM95.4346 111.53C95.3358 111.651 95.2358 111.771 95.1357 111.891C95.2358 111.771 95.3358 111.651 95.4346 111.53ZM31.4395 111.737C31.274 111.537 31.1119 111.335 30.9502 111.132C31.1119 111.335 31.274 111.537 31.4395 111.737ZM96.0605 110.744C95.9542 110.881 95.8472 111.017 95.7393 111.152C95.8472 111.017 95.9542 110.881 96.0605 110.744ZM30.8525 111.01C30.733 110.859 30.6155 110.706 30.498 110.553C30.6155 110.706 30.733 110.859 30.8525 111.01ZM96.6475 109.972C96.5485 110.105 96.4482 110.238 96.3477 110.37C96.4482 110.238 96.5485 110.105 96.6475 109.972ZM30.2295 110.201C30.1413 110.084 30.0548 109.965 29.9678 109.847C30.0548 109.965 30.1413 110.084 30.2295 110.201ZM97.2383 109.153C97.1392 109.294 97.0383 109.434 96.9375 109.573C97.0383 109.434 97.1392 109.294 97.2383 109.153ZM29.6436 109.402C29.5663 109.294 29.4903 109.185 29.4141 109.076C29.4903 109.185 29.5663 109.294 29.6436 109.402ZM97.791 108.349C97.693 108.495 97.593 108.64 97.4932 108.785C97.593 108.64 97.693 108.495 97.791 108.349ZM29.0762 108.588C28.9905 108.462 28.9066 108.334 28.8223 108.207C28.9066 108.334 28.9905 108.462 29.0762 108.588ZM98.3262 107.526C98.2387 107.664 98.1505 107.801 98.0615 107.938C98.1505 107.801 98.2387 107.664 98.3262 107.526ZM28.5381 107.774C28.4541 107.644 28.3716 107.513 28.2891 107.382C28.3716 107.513 28.4541 107.644 28.5381 107.774ZM98.8438 106.691C98.7639 106.824 98.6819 106.955 98.6006 107.087C98.6819 106.955 98.7639 106.824 98.8438 106.691ZM28.0146 106.942C27.9338 106.81 27.8548 106.677 27.7754 106.544C27.8548 106.677 27.9338 106.81 28.0146 106.942ZM99.3604 105.81C99.2754 105.959 99.1883 106.107 99.1016 106.255C99.1883 106.107 99.2754 105.959 99.3604 105.81ZM27.5137 106.102C27.4392 105.973 27.3661 105.844 27.293 105.715C27.3661 105.844 27.4392 105.973 27.5137 106.102ZM99.8506 104.922C99.7557 105.099 99.6589 105.274 99.5615 105.449C99.6589 105.274 99.7557 105.099 99.8506 104.922ZM27.0322 105.248C26.9554 105.108 26.88 104.967 26.8047 104.826C26.88 104.967 26.9554 105.108 27.0322 105.248ZM100.293 104.076C100.21 104.24 100.125 104.403 100.04 104.565C100.125 104.403 100.21 104.24 100.293 104.076ZM26.5723 104.386C26.4976 104.242 26.4245 104.097 26.3516 103.952C26.4245 104.097 26.4976 104.242 26.5723 104.386ZM100.723 103.204C100.663 103.329 100.602 103.452 100.541 103.576C100.602 103.452 100.663 103.329 100.723 103.204ZM65.0098 68.2383C55.2528 68.2384 47.343 76.1484 47.3428 85.9053C47.3428 95.6623 55.2527 103.572 65.0098 103.572C74.0284 103.572 81.4675 96.8141 82.542 88.0859C81.2178 88.8053 79.7276 89.2712 78.1299 89.4072C71.9381 89.9342 66.491 85.3422 65.9639 79.1504C65.6189 75.0961 67.4688 71.3606 70.5254 69.1172C68.7899 68.5474 66.9358 68.2383 65.0098 68.2383ZM26.1113 103.469C26.0459 103.335 25.982 103.2 25.918 103.064C25.982 103.2 26.0459 103.335 26.1113 103.469ZM101.157 102.267C101.096 102.403 101.033 102.54 100.971 102.676C101.033 102.54 101.096 102.403 101.157 102.267ZM25.7129 102.625C25.6394 102.465 25.5667 102.305 25.4951 102.144C25.5667 102.305 25.6394 102.465 25.7129 102.625ZM101.543 101.379C101.484 101.52 101.422 101.66 101.361 101.8C101.422 101.66 101.484 101.52 101.543 101.379ZM25.3037 101.706C25.2389 101.556 25.1753 101.404 25.1123 101.253C25.1753 101.404 25.2389 101.556 25.3037 101.706ZM101.92 100.449C101.872 100.572 101.823 100.694 101.773 100.815C101.823 100.694 101.872 100.572 101.92 100.449ZM24.916 100.773C24.8568 100.626 24.7987 100.478 24.7412 100.33C24.7987 100.478 24.8568 100.626 24.916 100.773ZM102.295 99.4551C102.23 99.6339 102.163 99.8116 102.096 99.9893C102.163 99.8116 102.23 99.6339 102.295 99.4551ZM24.5654 99.8721C24.5053 99.7114 24.4459 99.5503 24.3877 99.3887C24.4459 99.5503 24.5053 99.7114 24.5654 99.8721ZM102.615 98.5371C102.552 98.726 102.486 98.9139 102.42 99.1016C102.486 98.9139 102.552 98.726 102.615 98.5371ZM24.2207 98.915C24.1669 98.7598 24.1135 98.6043 24.0615 98.4482C24.1135 98.6043 24.1669 98.7598 24.2207 98.915ZM102.924 97.5791C102.875 97.7369 102.824 97.8938 102.773 98.0508C102.824 97.8938 102.875 97.7369 102.924 97.5791ZM23.9043 97.9639C23.8548 97.8089 23.8055 97.6538 23.7578 97.498C23.8055 97.6538 23.8548 97.8089 23.9043 97.9639ZM103.217 96.5879C103.165 96.7729 103.109 96.9567 103.055 97.1406C103.109 96.9567 103.165 96.7729 103.217 96.5879ZM23.6143 97.0146C23.5666 96.8518 23.5184 96.689 23.4727 96.5254C23.5184 96.689 23.5666 96.8518 23.6143 97.0146ZM23.3496 96.0684C23.3014 95.888 23.2528 95.7077 23.207 95.5264C23.2528 95.7077 23.3014 95.888 23.3496 96.0684ZM103.479 95.6094C103.44 95.7629 103.398 95.9155 103.357 96.0684C103.398 95.9155 103.44 95.7629 103.479 95.6094ZM103.718 94.6201C103.669 94.8319 103.617 95.0424 103.565 95.2529C103.617 95.0424 103.669 94.8319 103.718 94.6201ZM23.1104 95.1309C23.0643 94.9408 23.018 94.7506 22.9746 94.5596C23.018 94.7506 23.0643 94.9408 23.1104 95.1309ZM103.929 93.6445C103.891 93.829 103.85 94.0127 103.811 94.1963C103.85 94.0127 103.891 93.829 103.929 93.6445ZM22.8643 94.0527C22.8312 93.898 22.7979 93.7432 22.7666 93.5879C22.7979 93.7432 22.8312 93.898 22.8643 94.0527ZM104.123 92.6191C104.091 92.7978 104.056 92.9755 104.022 93.1533C104.056 92.9755 104.091 92.7978 104.123 92.6191ZM22.6475 92.9678C22.6253 92.8487 22.6022 92.7298 22.5811 92.6104C22.6022 92.7298 22.6253 92.8487 22.6475 92.9678ZM104.291 91.5996C104.266 91.7625 104.238 91.9247 104.212 92.0869C104.238 91.9247 104.266 91.7625 104.291 91.5996ZM22.4746 91.9648C22.4547 91.8405 22.4329 91.7165 22.4141 91.5918C22.4329 91.7165 22.4547 91.8405 22.4746 91.9648ZM104.433 90.5801C104.404 90.8099 104.371 91.0389 104.338 91.2676C104.371 91.0389 104.404 90.8099 104.433 90.5801ZM22.3379 91.0479C22.3145 90.8781 22.2898 90.7084 22.2686 90.5381C22.2898 90.7084 22.3145 90.8781 22.3379 91.0479ZM104.706 87.4844C104.66 88.4002 104.58 89.3078 104.475 90.207C104.54 89.6435 104.599 89.077 104.642 88.5068L104.706 87.4844ZM22.2207 90.1182C22.1985 89.9244 22.1748 89.7307 22.1553 89.5361C22.1748 89.7307 22.1985 89.9244 22.2207 90.1182ZM22 87.4795C22.0157 87.789 22.0352 88.0976 22.0576 88.4053C22.0352 88.0976 22.0157 87.789 22 87.4795ZM104.722 83.6348C104.745 84.2048 104.761 84.7777 104.761 85.3535L104.747 86.4219H104.746L104.76 85.3535C104.76 84.7777 104.745 84.2048 104.722 83.6348ZM104.641 82.1865C104.664 82.4968 104.683 82.808 104.699 83.1201C104.683 82.808 104.664 82.4968 104.641 82.1865ZM104.552 81.1826C104.571 81.3797 104.588 81.5775 104.604 81.7754C104.588 81.5775 104.571 81.3797 104.552 81.1826ZM104.46 80.3672C104.493 80.6383 104.524 80.9099 104.552 81.1826C104.524 80.9099 104.493 80.6383 104.46 80.3672ZM104.354 79.5635C104.381 79.7556 104.41 79.9477 104.435 80.1406C104.41 79.9477 104.381 79.7556 104.354 79.5635ZM104.197 78.5332C104.228 78.7208 104.261 78.9082 104.29 79.0967C104.261 78.9082 104.228 78.7208 104.197 78.5332ZM104.01 77.4873C104.049 77.6898 104.089 77.8922 104.125 78.0957C104.089 77.8922 104.049 77.6898 104.01 77.4873ZM103.816 76.54C103.856 76.7221 103.897 76.904 103.934 77.0869C103.897 76.904 103.856 76.7221 103.816 76.54ZM23.8086 73.04C23.506 74.0128 23.2381 75.0009 23.0068 76.0029V76.002C23.0839 75.6681 23.1649 75.3356 23.25 75.0049C23.4202 74.3433 23.6069 73.6884 23.8086 73.04ZM103.559 75.4199C103.613 75.6394 103.666 75.8592 103.717 76.0801C103.666 75.8592 103.613 75.6394 103.559 75.4199ZM103.328 74.5312C103.381 74.7262 103.435 74.9211 103.484 75.1172C103.435 74.9211 103.381 74.7262 103.328 74.5312ZM103.073 73.6289C103.12 73.7873 103.168 73.9453 103.213 74.1045C103.168 73.9453 103.12 73.7873 103.073 73.6289ZM102.767 72.6338C102.82 72.7996 102.874 72.9652 102.926 73.1318C102.874 72.9652 102.82 72.7996 102.767 72.6338ZM102.42 71.6055C102.488 71.7994 102.557 71.9933 102.622 72.1885C102.557 71.9933 102.488 71.7994 102.42 71.6055ZM102.107 70.749C102.17 70.9154 102.233 71.0817 102.294 71.249C102.233 71.0817 102.17 70.9154 102.107 70.749ZM101.771 69.8857C101.821 70.0097 101.872 70.1333 101.921 70.2578C101.872 70.1333 101.821 70.0097 101.771 69.8857ZM101.37 68.9268C101.43 69.0647 101.491 69.2021 101.549 69.3408C101.491 69.2021 101.43 69.0647 101.37 68.9268ZM100.958 68.0039C101.024 68.1469 101.091 68.2897 101.155 68.4336C101.091 68.2897 101.024 68.1469 100.958 68.0039ZM100.539 67.126C100.602 67.2548 100.667 67.3831 100.729 67.5127C100.667 67.3831 100.602 67.2548 100.539 67.126ZM100.061 66.1816C100.139 66.3324 100.219 66.4829 100.296 66.6348C100.219 66.4829 100.139 66.3324 100.061 66.1816ZM99.5781 65.2871C99.6672 65.4476 99.7568 65.6078 99.8438 65.7695C99.7568 65.6078 99.6672 65.4476 99.5781 65.2871ZM99.0723 64.4023C99.1707 64.5698 99.2691 64.7373 99.3652 64.9062C99.2691 64.7373 99.1707 64.5698 99.0723 64.4023ZM98.5947 63.6104C98.6868 63.7593 98.7789 63.9084 98.8691 64.0586C98.7789 63.9084 98.6868 63.7593 98.5947 63.6104ZM98.0586 62.7646C98.149 62.9032 98.2393 63.0419 98.3281 63.1816C98.2393 63.0419 98.149 62.9032 98.0586 62.7646ZM97.4912 61.9189C97.5957 62.0708 97.7003 62.2226 97.8027 62.376C97.7003 62.2226 97.5957 62.0708 97.4912 61.9189ZM96.9238 61.1133C97.0326 61.2636 97.1403 61.4146 97.2471 61.5664C97.1403 61.4146 97.0326 61.2636 96.9238 61.1133ZM96.3457 60.333C96.4534 60.4748 96.5601 60.6175 96.666 60.7607C96.5601 60.6175 96.4534 60.4748 96.3457 60.333ZM38.5791 52.1729C35.6563 54.3587 33.0321 56.922 30.7783 59.79L30.1729 60.5791C31.1665 59.2505 32.2382 57.9837 33.3809 56.7852C33.8377 56.306 34.306 55.8377 34.7852 55.3809C35.7439 54.4668 36.7462 53.5979 37.7891 52.7783L38.5791 52.1729ZM95.7266 59.5381C95.8417 59.6822 95.9561 59.8269 96.0693 59.9727C95.9561 59.8269 95.8417 59.6822 95.7266 59.5381ZM95.1006 58.7734C95.2219 58.9182 95.3425 59.0635 95.4619 59.21C95.3425 59.0635 95.2219 58.9182 95.1006 58.7734ZM94.4521 58.0186C94.5803 58.1643 94.7078 58.3105 94.834 58.458C94.7078 58.3105 94.5803 58.1643 94.4521 58.0186ZM93.8008 57.2939C93.932 57.4363 94.0622 57.5795 94.1914 57.7236C94.0622 57.5795 93.932 57.4363 93.8008 57.2939ZM93.1465 56.6016C93.2655 56.7248 93.3835 56.8489 93.501 56.9736C93.3835 56.8489 93.2655 56.7248 93.1465 56.6016ZM92.4346 55.8809C92.5657 56.0102 92.6958 56.1404 92.8252 56.2715C92.6958 56.1404 92.5657 56.0102 92.4346 55.8809ZM91.7432 55.2139C91.8687 55.3321 91.9932 55.4515 92.1172 55.5713C91.9932 55.4515 91.8687 55.3321 91.7432 55.2139ZM91.0127 54.542C91.1437 54.6597 91.2738 54.7782 91.4033 54.8975C91.2739 54.7782 91.1437 54.6597 91.0127 54.542ZM90.2949 53.9121C90.4153 54.0153 90.5351 54.1191 90.6543 54.2236C90.5351 54.1191 90.4153 54.0153 90.2949 53.9121ZM89.5303 53.2715C89.6511 53.3702 89.7709 53.4702 89.8906 53.5703C89.7709 53.4702 89.6511 53.3702 89.5303 53.2715ZM88.7441 52.6455C88.8809 52.7518 89.017 52.8588 89.1523 52.9668C89.017 52.8588 88.8809 52.7518 88.7441 52.6455ZM87.9717 52.0586C88.1053 52.1575 88.2378 52.2579 88.3701 52.3584C88.2378 52.2579 88.1053 52.1575 87.9717 52.0586ZM87.1533 51.4678C87.2942 51.5669 87.4337 51.6677 87.5732 51.7686C87.4337 51.6677 87.2942 51.5669 87.1533 51.4678ZM40.2031 51.0186H40.2021H40.2031ZM86.3486 50.915C86.4951 51.013 86.64 51.1131 86.7852 51.2129C86.64 51.1131 86.4951 51.013 86.3486 50.915ZM85.5264 50.3799C85.664 50.4673 85.801 50.5555 85.9375 50.6445C85.801 50.5555 85.664 50.4673 85.5264 50.3799ZM84.6914 49.8623C84.824 49.9422 84.9553 50.0241 85.0869 50.1055C84.9553 50.0241 84.824 49.9422 84.6914 49.8623ZM83.8096 49.3457C83.9588 49.4307 84.1068 49.5177 84.2549 49.6045C84.1068 49.5177 83.9588 49.4307 83.8096 49.3457ZM43.6172 48.9443L42.7432 49.4326C43.3211 49.1003 43.9078 48.7814 44.5029 48.4766C44.2055 48.6289 43.9104 48.7851 43.6172 48.9443ZM82.9434 48.8662C83.1077 48.9546 83.2706 49.0452 83.4336 49.1357C83.2706 49.0452 83.1077 48.9546 82.9434 48.8662ZM82.0801 48.415C82.2311 48.4918 82.3813 48.5699 82.5312 48.6484C82.3813 48.5699 82.2311 48.4918 82.0801 48.415ZM81.2041 47.9834C81.3286 48.043 81.4523 48.1042 81.5762 48.165C81.4523 48.1042 81.3286 48.043 81.2041 47.9834ZM80.2666 47.5488C80.417 47.6162 80.5664 47.6857 80.7158 47.7549C80.5664 47.6857 80.417 47.6162 80.2666 47.5488ZM79.3789 47.1631C79.5199 47.2223 79.6597 47.284 79.7998 47.3447C79.6597 47.284 79.5199 47.2223 79.3789 47.1631ZM78.4492 46.7861C78.5717 46.8341 78.6935 46.8835 78.8154 46.9326C78.6935 46.8835 78.5717 46.8341 78.4492 46.7861ZM56.0234 44.5938C53.6448 45.0187 51.3365 45.6464 49.1172 46.459C50.3852 45.9947 51.6822 45.5903 53.0049 45.25C53.3356 45.1649 53.6681 45.0839 54.002 45.0068C54.6697 44.8527 55.3438 44.7152 56.0234 44.5938ZM77.4551 46.4111C77.6339 46.4759 77.8116 46.5432 77.9893 46.6104C77.8116 46.5432 77.6339 46.4759 77.4551 46.4111ZM76.5371 46.0908C76.7323 46.1563 76.9263 46.2246 77.1201 46.293C76.9263 46.2246 76.7323 46.1563 76.5371 46.0908ZM75.5791 45.7822C75.7369 45.8309 75.8938 45.8821 76.0508 45.9326C75.8938 45.8821 75.7369 45.8309 75.5791 45.7822ZM74.5879 45.4893C74.7729 45.5413 74.9567 45.5968 75.1406 45.6514C74.9567 45.5968 74.7729 45.5413 74.5879 45.4893ZM73.6094 45.2266C73.8216 45.2806 74.0323 45.3392 74.2432 45.3965C74.0323 45.3392 73.8216 45.2806 73.6094 45.2266ZM72.6201 44.9883C72.8319 45.0367 73.0424 45.089 73.2529 45.1406C73.0424 45.089 72.8319 45.0367 72.6201 44.9883ZM71.6445 44.7773C71.829 44.8148 72.0127 44.8556 72.1963 44.8955C72.0127 44.8556 71.829 44.8148 71.6445 44.7773ZM70.6191 44.583C70.7977 44.6146 70.9755 44.6497 71.1533 44.6836C70.9755 44.6497 70.7977 44.6146 70.6191 44.583ZM69.5996 44.415C69.823 44.4488 70.0454 44.4871 70.2676 44.5244C70.0454 44.4871 69.823 44.4488 69.5996 44.415ZM68.5801 44.2734C68.8139 44.3029 69.0467 44.3368 69.2793 44.3701C69.0467 44.3368 68.8139 44.3029 68.5801 44.2734ZM67.5605 44.1572C67.7665 44.178 67.9717 44.2037 68.1768 44.2275C67.9717 44.2037 67.7665 44.178 67.5605 44.1572ZM66.5391 44.0674C66.7407 44.0827 66.9417 44.1019 67.1426 44.1201C66.9311 44.1009 66.7193 44.0814 66.5068 44.0654L66.5391 44.0674ZM61.2236 44.001H61.2227H61.2236ZM66.417 44.0596C66.106 44.0368 65.7943 44.0158 65.4814 44C65.7943 44.0158 66.106 44.0368 66.417 44.0596Z" fill="white"/>
</svg>
